<?xml version="1.0" encoding="UTF-8"?>
<svg version="1.1" xmlns="http://www.w3.org/2000/svg" width="48" height="48">
<path d="M0 0 C1.29228516 0.00966797 2.58457031 0.01933594 3.91601562 0.02929688 C5.27083945 0.0543589 6.62565716 0.07975369 7.98046875 0.10546875 C9.3548032 0.12052862 10.72915343 0.13421474 12.10351562 0.14648438 C15.45873507 0.18180247 18.81315041 0.23113024 22.16796875 0.29296875 C21.5594782 6.10439535 20.73883607 8.50249341 16.16796875 12.29296875 C15.17796875 12.78796875 15.17796875 12.78796875 14.16796875 13.29296875 C14.49796875 13.95296875 14.82796875 14.61296875 15.16796875 15.29296875 C12.26138376 21.55330566 12.26138376 21.55330566 9.04296875 23.73046875 C4.75150618 24.57010273 0.52522521 24.44526121 -3.83203125 24.29296875 C-3.93 24.90785156 -4.02796875 25.52273437 -4.12890625 26.15625 C-5.34323288 32.7198948 -5.34323288 32.7198948 -7.64453125 35.41796875 C-10.42068642 36.52843082 -12.01286256 36.15438141 -14.83203125 35.29296875 C-15.04395346 30.10087471 -14.42330015 26.16622975 -12.83203125 21.29296875 C-13.49203125 21.29296875 -14.15203125 21.29296875 -14.83203125 21.29296875 C-15.40831583 8.10245492 -15.40831583 8.10245492 -11.83203125 3.29296875 C-7.83129021 0.30280015 -4.94133707 -0.06530401 0 0 Z " fill="#57DAF3" transform="translate(20.83203125,5.70703125)"/>
<path d="M0 0 C1.24040039 0.01353516 1.24040039 0.01353516 2.50585938 0.02734375 C4.52486708 0.05068488 6.54372356 0.08654712 8.5625 0.125 C7.5725 0.455 6.5825 0.785 5.5625 1.125 C5.8925 3.765 6.2225 6.405 6.5625 9.125 C2.16231476 11.61505132 -1.61362234 11.45704533 -6.5625 11.4375 C-7.38621094 11.45361328 -8.20992187 11.46972656 -9.05859375 11.48632812 C-9.84621094 11.48697266 -10.63382813 11.48761719 -11.4453125 11.48828125 C-12.52256592 11.49275269 -12.52256592 11.49275269 -13.62158203 11.49731445 C-15.4375 11.125 -15.4375 11.125 -17.4375 8.125 C-17.0625 4.9375 -17.0625 4.9375 -16.4375 2.125 C-10.81492839 0.2080427 -5.91380615 -0.12389924 0 0 Z " fill="#1FB0FB" transform="translate(32.4375,7.875)"/>
<path d="M0 0 C1.29228516 0.00966797 2.58457031 0.01933594 3.91601562 0.02929688 C5.27083945 0.0543589 6.62565716 0.07975369 7.98046875 0.10546875 C9.3548032 0.12052862 10.72915343 0.13421474 12.10351562 0.14648438 C15.45873507 0.18180247 18.81315041 0.23113024 22.16796875 0.29296875 C21.36328125 7.05078125 21.36328125 7.05078125 19.60546875 9.23046875 C19.13109375 9.58109375 18.65671875 9.93171875 18.16796875 10.29296875 C17.83796875 7.98296875 17.50796875 5.67296875 17.16796875 3.29296875 C14.813722 3.26569948 12.45979913 3.24600156 10.10546875 3.23046875 C8.79449219 3.21886719 7.48351562 3.20726562 6.1328125 3.1953125 C2.35161685 3.2884454 -1.11123832 3.67848149 -4.83203125 4.29296875 C-4.83203125 6.27296875 -4.83203125 8.25296875 -4.83203125 10.29296875 C-2.19203125 10.62296875 0.44796875 10.95296875 3.16796875 11.29296875 C3.16796875 11.62296875 3.16796875 11.95296875 3.16796875 12.29296875 C2.50410156 12.37933594 1.84023438 12.46570312 1.15625 12.5546875 C-4.75979608 13.49607293 -7.89168141 14.49066738 -11.83203125 19.29296875 C-12.49203125 19.62296875 -13.15203125 19.95296875 -13.83203125 20.29296875 C-14.04731207 14.34882618 -14.21863842 8.86171881 -11.83203125 3.29296875 C-7.89701316 0.23794678 -4.90668087 -0.064846 0 0 Z " fill="#1FC7F3" transform="translate(20.83203125,5.70703125)"/>
<path d="M0 0 C2.33944736 0.28730055 4.6739143 0.61936779 7 1 C6.67 1.66 6.34 2.32 6 3 C6.99 3.66 7.98 4.32 9 5 C6.56612247 6.21693876 4.58161154 6.31959896 1.875 6.5625 C0.96492188 6.64628906 0.05484375 6.73007812 -0.8828125 6.81640625 C-1.93082031 6.90728516 -1.93082031 6.90728516 -3 7 C-3 6.01 -3 5.02 -3 4 C-3.66 4.66 -4.32 5.32 -5 6 C-5.825 6.7425 -6.65 7.485 -7.5 8.25 C-10.1296114 11.14257254 -11.04181507 13.25436801 -12 17 C-12.33 17 -12.66 17 -13 17 C-13 14.03 -13 11.06 -13 8 C-12.34 8 -11.68 8 -11 8 C-11 6.35 -11 4.7 -11 3 C-10.28972656 2.86722656 -9.57945313 2.73445313 -8.84765625 2.59765625 C-7.92855469 2.42105469 -7.00945313 2.24445312 -6.0625 2.0625 C-5.14597656 1.88847656 -4.22945312 1.71445312 -3.28515625 1.53515625 C-1.04710156 1.22285012 -1.04710156 1.22285012 0 0 Z " fill="#13D5FA" transform="translate(22,22)"/>
<path d="M0 0 C1.29550781 0.00644531 2.59101563 0.01289062 3.92578125 0.01953125 C5.28906519 0.03624057 6.65234644 0.05317044 8.015625 0.0703125 C9.39452485 0.0803491 10.77343165 0.08947377 12.15234375 0.09765625 C15.52361382 0.12123157 18.89453136 0.1541398 22.265625 0.1953125 C21.4609375 6.953125 21.4609375 6.953125 19.703125 9.1328125 C19.22875 9.4834375 18.754375 9.8340625 18.265625 10.1953125 C17.935625 7.8853125 17.605625 5.5753125 17.265625 3.1953125 C1.77160983 2.24130772 1.77160983 2.24130772 -12.734375 6.1953125 C-11.81375352 3.89375879 -11.15633897 2.4806417 -9.07714844 1.07470703 C-5.95909096 -0.09570179 -3.32788249 -0.02919195 0 0 Z " fill="#81CAEC" transform="translate(20.734375,5.8046875)"/>
<path d="M0 0 C0.66 0 1.32 0 2 0 C2 0.99 2 1.98 2 3 C4.64 3 7.28 3 10 3 C10 3.33 10 3.66 10 4 C6.7 4 3.4 4 0 4 C-0.2475 5.423125 -0.495 6.84625 -0.75 8.3125 C-1.42482599 11.30910493 -1.79401437 12.7584996 -3.8125 15.125 C-6.58865517 16.23546207 -8.18083131 15.86141266 -11 15 C-11.08159574 10.83861737 -10.98248524 7.0527516 -10 3 C-9.67 3 -9.34 3 -9 3 C-8.67 5.97 -8.34 8.94 -8 12 C-7.773125 11.278125 -7.54625 10.55625 -7.3125 9.8125 C-5.74962296 6.46347777 -3.66414749 4.52752454 -1 2 C-0.67 1.34 -0.34 0.68 0 0 Z " fill="#6FD6F2" transform="translate(17,26)"/>
<path d="M0 0 C5.94 0 11.88 0 18 0 C17.01 0.33 16.02 0.66 15 1 C15.33 3.31 15.66 5.62 16 8 C14.35 7.67 12.7 7.34 11 7 C10.67 7.66 10.34 8.32 10 9 C8.64560332 6.29120665 8.93498549 3.99066732 9 1 C6.03 1 3.06 1 0 1 C0 0.67 0 0.34 0 0 Z " fill="#3196F5" transform="translate(23,8)"/>
<path d="M0 0 C2.31 0 4.62 0 7 0 C6.6875 2.375 6.6875 2.375 6 5 C2.68629 7.20914 1.6553979 7.22481553 -2.1875 7.125 C-3.08855469 7.10695313 -3.98960938 7.08890625 -4.91796875 7.0703125 C-5.60503906 7.04710937 -6.29210937 7.02390625 -7 7 C-7 6.67 -7 6.34 -7 6 C-2.545 5.505 -2.545 5.505 2 5 C1.01 4.34 0.02 3.68 -1 3 C-0.34 2.67 0.32 2.34 1 2 C0.67 1.34 0.34 0.68 0 0 Z " fill="#21CFF2" transform="translate(27,22)"/>
<path d="M0 0 C2.475 0.495 2.475 0.495 5 1 C3.15741754 2.92863714 1.65121023 3.92009594 -1.01757812 4.24755859 C-3.43427459 4.29505495 -5.83398212 4.26111304 -8.25 4.1875 C-9.09046875 4.17396484 -9.9309375 4.16042969 -10.796875 4.14648438 C-12.86485938 4.11123464 -14.93251271 4.0574302 -17 4 C-17 3.67 -17 3.34 -17 3 C-11.29309366 2.00749455 -5.78591511 1.89522488 0 2 C0 1.34 0 0.68 0 0 Z " fill="#6AB6EE" transform="translate(34,15)"/>
<path d="M0 0 C0.66 0 1.32 0 2 0 C2 0.99 2 1.98 2 3 C4.64 3 7.28 3 10 3 C10 3.33 10 3.66 10 4 C6.7 4 3.4 4 0 4 C-0.33 4.99 -0.66 5.98 -1 7 C-1.04254356 5.00045254 -1.04080783 2.99958364 -1 1 C-0.67 0.67 -0.34 0.34 0 0 Z " fill="#5DEAFB" transform="translate(17,26)"/>
<path d="M0 0 C0 1.65 0 3.3 0 5 C-1.65 5.33 -3.3 5.66 -5 6 C-4.6875 4.125 -4.6875 4.125 -4 2 C-1 0 -1 0 0 0 Z " fill="#27A6F2" transform="translate(16,30)"/>
<path d="M0 0 C1.32 0 2.64 0 4 0 C3.625 2.9375 3.625 2.9375 3 6 C2.01 6.495 2.01 6.495 1 7 C0.67 4.69 0.34 2.38 0 0 Z " fill="#579FED" transform="translate(38,9)"/>
<path d="M0 0 C4.29 0 8.58 0 13 0 C13 0.33 13 0.66 13 1 C12.25234375 1.04898437 11.5046875 1.09796875 10.734375 1.1484375 C9.74953125 1.22320312 8.7646875 1.29796875 7.75 1.375 C6.28820312 1.47941406 6.28820312 1.47941406 4.796875 1.5859375 C2.10366811 1.98465249 0.33036721 2.63507063 -2 4 C-1.34 2.68 -0.68 1.36 0 0 Z " fill="#4BCAEB" transform="translate(10,8)"/>
</svg>
